<svg id="Layer_1" data-name="Layer 1" xmlns="http://www.w3.org/2000/svg" viewBox="0 0 512 512"><title>dollar-money-bag-flat</title><path d="M0,256C0,114.62,114.62,0,256,0S512,114.63,512,256,397.37,512,256,512,0,397.38,0,256Z" fill="#00c7ff"/><path d="M234.29,187.44c1.31-8.26,5.39-18.69,13.49-25.16,11-8.76-7.32-8-19.72-6.57s-39.42-5.84-45.26-.73-3.65,13.15,2.92,17.52c3.83,2.56,8.39,9.57,11.54,15-37.28,13.47-65.13,66.6-65.13,130.13a212,212,0,0,0,1.34,23.74c1.58,5.27,6.62,17.52,19.3,17.52h124s17.86-.56,21.21-15.32c.23-1.81.44-3.62.62-5.46a15.76,15.76,0,0,1,.17-2.14c.52-6,.81-12.12.81-18.34C299.53,254,271.63,200.85,234.29,187.44Zm3.92,123.77q-7.52,7.92-19.5,8.49v11.54H212V319.83A42,42,0,0,1,198.07,316a24.22,24.22,0,0,1-9.25-8.9,32,32,0,0,1-4.54-15l11.48-2.14q1.33,9.19,4.7,13.49,4.8,6.07,11.53,6.78V273.88a47.93,47.93,0,0,1-14.39-5.44A21.22,21.22,0,0,1,189.2,260a25.1,25.1,0,0,1-2.94-12.24q0-12.17,8.61-19.71,5.77-5.07,17.11-6.21V216.4h6.73v5.45c6.62.63,11.89,2.58,15.77,5.83q7.48,6.21,9,17.05l-11.78,1.77c-.68-4.48-2.07-7.91-4.21-10.3a15.63,15.63,0,0,0-8.77-4.73v32.89a93.39,93.39,0,0,1,11.4,3.37,28.1,28.1,0,0,1,8.67,5.71,22.88,22.88,0,0,1,5.18,8,27.28,27.28,0,0,1,1.81,10Q245.77,303.31,238.21,311.21Z" fill="#fff"/><path d="M218.71,275.47V310.2a16.89,16.89,0,0,0,11-5.78A17.82,17.82,0,0,0,234,292.2q0-6.21-3.08-10T218.71,275.47Z" fill="#fff"/><path d="M197.66,246.89a14.84,14.84,0,0,0,3.26,9.77c2.19,2.62,5.86,4.72,11.07,6.26V231.35a17,17,0,0,0-10.49,5.33A14.91,14.91,0,0,0,197.66,246.89Z" fill="#fff"/><path d="M377,277.33a5,5,0,0,1-.21.53c-.74,1.51-1.52,2.95-2.33,4.36a0,0,0,0,1,0,0,7.37,7.37,0,0,1,0,3.16,38,38,0,0,1-4.45,10.93,36.23,36.23,0,0,1-72.27-3.21,34.49,34.49,0,0,1,.36-5c-2.85-4.29-5.32-8.78-6.38-12.95a44.3,44.3,0,0,0-3.79,17.93c0,25.06,20.59,45.38,46,45.38s46-20.32,46-45.38A44.51,44.51,0,0,0,377,277.33Z" fill="#fff"/><path d="M376,296.33c-.79,4.75-3.07,9.47-4.69,14a7.91,7.91,0,0,1-1.28,2.35c0,.38.08.74.08,1.11,0,19.06-16.23,34.51-36.23,34.51s-36.2-15.45-36.2-34.51a32.08,32.08,0,0,1,.22-3.7c-3.05-4.45-5.29-10.1-5.25-15.55a41.52,41.52,0,0,0-4.77,19.26c0,24.22,20.59,43.82,46,43.82s46-19.6,46-43.82A41.36,41.36,0,0,0,376,296.33Z" fill="#fff"/><path d="M333.86,226.63c-25.41,0-46,20.33-46,45.39s20.59,45.39,46,45.39,46-20.31,46-45.39S359.27,226.63,333.86,226.63Zm0,81.12A36,36,0,0,1,297.66,272c0-19.72,16.21-35.72,36.2-35.72s36.23,16,36.23,35.72S353.87,307.75,333.86,307.75Z" fill="#fff"/><path d="M345.5,272.33a13.52,13.52,0,0,0-4.13-2.67,46.82,46.82,0,0,0-5.41-1.57V252.67a7.49,7.49,0,0,1,4.17,2.21,9.06,9.06,0,0,1,2,4.82l5.61-.82a12.15,12.15,0,0,0-4.28-8,13.57,13.57,0,0,0-7.5-2.73V245.6h-3.18v2.55c-3.59.35-6.3,1.33-8.12,2.91a12.46,12.46,0,0,0-2.71,15,10,10,0,0,0,4,3.94,22.83,22.83,0,0,0,6.84,2.56v17a7.91,7.91,0,0,1-5.47-3.17,13.56,13.56,0,0,1-2.23-6.34l-5.44,1a14.82,14.82,0,0,0,2.15,7,11.64,11.64,0,0,0,4.4,4.18,20.12,20.12,0,0,0,6.6,1.79v5.34H336V294a13.18,13.18,0,0,0,9.27-4,13.61,13.61,0,0,0,2.72-14A10.78,10.78,0,0,0,345.5,272.33Zm-12.73-4.93a10.53,10.53,0,0,1-5.25-2.95A6.72,6.72,0,0,1,326,259.9a6.85,6.85,0,0,1,1.8-4.78,8,8,0,0,1,5-2.5Zm8.41,19.45a8.07,8.07,0,0,1-5.22,2.7V273.28c2.91.93,4.84,2,5.82,3.16a7.14,7.14,0,0,1,1.45,4.69A8.27,8.27,0,0,1,341.17,286.85Z" fill="#fff"/></svg>