<svg width="12" height="12" viewBox="0 0 12 12" fill="none" xmlns="http://www.w3.org/2000/svg">
<path fill-rule="evenodd" clip-rule="evenodd" d="M11.25 5.41667C11.6 5.41667 11.8333 5.18333 11.8333 4.83333V3.66667C11.8333 2.03333 10.55 0.75 8.91663 0.75H3.08329C1.44996 0.75 0.166626 2.03333 0.166626 3.66667V4.83333C0.166626 5.18333 0.399959 5.41667 0.749959 5.41667C1.09996 5.41667 1.33329 5.65 1.33329 6C1.33329 6.35 1.09996 6.58333 0.749959 6.58333C0.399959 6.58333 0.166626 6.81667 0.166626 7.16667V8.33333C0.166626 9.96667 1.44996 11.25 3.08329 11.25H8.91663C10.55 11.25 11.8333 9.96667 11.8333 8.33333V7.16667C11.8333 6.81667 11.6 6.58333 11.25 6.58333C10.9 6.58333 10.6666 6.35 10.6666 6C10.6666 5.65 10.9 5.41667 11.25 5.41667ZM7.10829 7.98333C6.93329 8.15833 6.69996 8.275 6.46663 8.33333V8.45C6.46663 8.74167 6.23329 8.975 5.99996 8.975C5.76663 8.975 5.53329 8.74167 5.53329 8.45V8.33333C5.29996 8.275 5.12496 8.21667 4.94996 8.1C4.71663 7.925 4.54163 7.75 4.42496 7.51667C4.36663 7.4 4.42496 7.225 4.54163 7.16667L5.00829 6.99167C5.12496 6.93333 5.29996 6.99167 5.35829 7.10833C5.41663 7.225 5.47496 7.28333 5.53329 7.34167C5.64996 7.45833 5.82496 7.51667 5.99996 7.51667C6.11663 7.51667 6.23329 7.45833 6.34996 7.4C6.46663 7.34167 6.46663 7.225 6.46663 7.10833C6.46663 6.875 6.29163 6.7 5.94163 6.525C5.41663 6.29167 5.06663 6.175 5.00829 6.11667C4.65829 5.88333 4.48329 5.475 4.48329 5.00833C4.48329 4.65833 4.59996 4.36667 4.89163 4.13333C5.06663 3.95833 5.24163 3.84167 5.47496 3.78333V3.60833C5.53329 3.31667 5.76663 3.08333 5.99996 3.08333C6.23329 3.08333 6.46663 3.31667 6.46663 3.60833V3.84167C6.64163 3.9 6.75829 3.95833 6.87496 4.01667C7.04996 4.13333 7.22496 4.30833 7.34163 4.48333C7.39996 4.6 7.34163 4.775 7.22496 4.83333L6.81663 5.00833C6.69996 5.06667 6.52496 5.00833 6.40829 4.89167C6.34996 4.83333 6.34996 4.83333 6.29163 4.775C6.17496 4.65833 6.05829 4.65833 5.88329 4.65833C5.76663 4.65833 5.70829 4.71667 5.59163 4.775C5.59163 4.775 5.59163 4.83333 5.59163 5.00833C5.59163 5.18333 5.76663 5.3 6.11663 5.475C6.64163 5.70833 6.99163 5.825 7.10829 5.94167C7.45829 6.175 7.63329 6.525 7.63329 6.93333C7.63329 7.28333 7.45829 7.69167 7.10829 7.98333Z" fill="white"/>
</svg>
