<svg width="11" height="12" viewBox="0 0 11 12" fill="none" xmlns="http://www.w3.org/2000/svg">
<path d="M7.04084 7.87597C7.12588 7.92587 7.21931 7.95005 7.31217 7.95005C7.49278 7.95005 7.6694 7.8569 7.76916 7.69062C7.91948 7.43821 7.83602 7.11229 7.58485 6.96158L5.85265 5.92888V3.67043C5.85265 3.37712 5.61522 3.13892 5.32114 3.13892C5.02771 3.13892 4.78963 3.377 4.78963 3.67043V6.23078C4.78963 6.41821 4.88934 6.59166 5.04897 6.68772L7.04084 7.87597Z" fill="#E84493"/>
<path fill-rule="evenodd" clip-rule="evenodd" d="M0.083374 5.86458C0.083374 8.85145 2.51317 11.2812 5.50004 11.2812C8.48691 11.2812 10.9167 8.85145 10.9167 5.86458C10.9167 2.87771 8.48691 0.447914 5.50004 0.447914C2.51317 0.447914 0.083374 2.87771 0.083374 5.86458ZM1.14639 5.86458C1.14639 3.46405 3.09951 1.51093 5.50004 1.51093C7.90057 1.51093 9.85369 3.46405 9.85369 5.86458C9.85369 8.26511 7.90057 10.2182 5.50004 10.2182C3.09951 10.2182 1.14639 8.26511 1.14639 5.86458Z" fill="#E84493"/>
</svg>
